# xmcd
#
# Track frame offsets:
#	150
#	22240
#	43240
#	68240
#	88555
#	111160
#	131970
#	155212
#	173340
#	196072
#
# Disc length: 2965 seconds
#
# Revision: 2
# Processed by: cddbd v1.4PL0 Copyright (c) Steve Scherf et al.
# Submitted via: EasyCDDAExtractor 5.0.7
#
DISCID=8b0b930a
DTITLE=Various Artist - Tinh Ca Ngo Thuy Mien
DYEAR=1900
DGENRE=Vietnamese
TTITLE0=Ai Van - Em Ve Mua Thu
TTITLE1=Duy Quang - Ban Tinh CA Cho Em
TTITLE2=Khanh Ha - Tu Giong Hat Em
TTITLE3=Tuan Ngoc - Mat Biec
TTITLE4=Thai Thao  - Giot Nuoc Mat Nga
TTITLE5=Don Ho - Tinh Cuoi Chan May
TTITLE6=Nhu Mai - Giang Ngoc
TTITLE7=Phi Khanh - Mua Thu Cho Em
TTITLE8=Thai Hien - Em Con Nho Mua Xuan
TTITLE9=Dalena - Niem Khuc Cuoi
EXTD=
EXTT0=
EXTT1=
EXTT2=
EXTT3=
EXTT4=
EXTT5=
EXTT6=
EXTT7=
EXTT8=
EXTT9=
PLAYORDER=
